<?xml version="1.0" encoding="UTF-8"?>
<svg width="15px" height="18px" viewBox="0 0 15 18" version="1.1" xmlns="http://www.w3.org/2000/svg" xmlns:xlink="http://www.w3.org/1999/xlink">
    <!-- Generator: Sketch 50 (54983) - http://www.bohemiancoding.com/sketch -->
    <title>Thumbs Down</title>
    <desc>Created with Sketch.</desc>
    <defs></defs>
    <g id="Anatomy-&amp;-Layout" stroke="none" stroke-width="1" fill="none" fill-rule="evenodd">
        <g id="Mobile-01" transform="translate(-306.000000, -500.000000)" fill="#000000">
            <g id="Group" transform="translate(12.000000, 356.000000)">
                <g id="Thumbs-Up" transform="translate(294.000000, 143.000000)">
                    <path d="M6.4018125,1 L5.293125,3.9345625 L1.82925,9.43975 L0,9.4335625 L0,17.53525 L1.9929375,17.5375 L3.936375,19 L12.403125,19 L13.5601875,17.822125 L13.5601875,16.0643125 L13.334625,15.835375 L13.90725,15.2520625 L13.90725,13.49425 L13.6861875,13.2686875 L14.2633125,12.682 L14.2633125,10.923625 L14.0445,10.7014375 L14.625,10.111375 L14.625,8.3490625 L13.4668125,7.17175 L9.1895625,7.17175 L9.077625,6.9630625 L9.7700625,4.3541875 L9.482625,1 L6.4018125,1 Z M2.4913125,15.995125 L2.6544375,10.9855 L6.6076875,4.7018125 L7.439625,2.5429375 L8.0955,2.5429375 L8.2389375,4.216375 L7.4581875,7.1588125 L8.2929375,8.714125 L12.717,8.72425 L13.111875,9.1275625 L13.111875,9.758125 L12.717,10.160875 L11.4193125,10.160875 L12.767625,11.5406875 L12.767625,12.1915 L12.3721875,12.5948125 L11.080125,12.5948125 L12.4329375,13.9695625 L12.4329375,14.620375 L12.0375,15.0236875 L10.7505,15.0236875 L12.103875,16.397875 L12.103875,17.0543125 L11.7084375,17.4570625 L4.433625,17.4570625 L2.4913125,15.995125 Z" id="Thumbs-Down" transform="translate(7.312500, 10.000000) rotate(180.000000) translate(-7.312500, -10.000000) "></path>
                </g>
            </g>
        </g>
    </g>
</svg>