<?xml version="1.0" encoding="UTF-8"?>
<svg width="15px" height="18px" viewBox="0 0 15 18" version="1.1" xmlns="http://www.w3.org/2000/svg" xmlns:xlink="http://www.w3.org/1999/xlink">
    <!-- Generator: Sketch 50 (54983) - http://www.bohemiancoding.com/sketch -->
    <title>Thumbs Down Selected</title>
    <desc>Created with Sketch.</desc>
    <defs></defs>
    <g id="Anatomy-&amp;-Layout" stroke="none" stroke-width="1" fill="none" fill-rule="evenodd">
        <g id="Mobile-01" transform="translate(-306.000000, -745.000000)" fill="#3A64EE">
            <g id="Group" transform="translate(12.000000, 553.000000)">
                <g id="Thumbs-Up" transform="translate(294.000000, 191.000000)">
                    <polygon id="Thumbs-Down-Selected" transform="translate(7.312500, 10.000000) rotate(180.000000) translate(-7.312500, -10.000000) " points="6.4018125 1 5.293125 3.9345625 1.82925 9.43975 0 9.4335625 0 17.53525 1.9929375 17.5375 3.936375 19 12.403125 19 13.5601875 17.822125 13.5601875 16.0643125 13.334625 15.835375 13.90725 15.2520625 13.90725 13.49425 13.6861875 13.2686875 14.2633125 12.682 14.2633125 10.923625 14.0445 10.7014375 14.625 10.111375 14.625 8.3490625 13.4668125 7.17175 9.1895625 7.17175 9.077625 6.9630625 9.7700625 4.3541875 9.482625 1"></polygon>
                </g>
            </g>
        </g>
    </g>
</svg>