<?xml version="1.0" encoding="UTF-8"?>
<svg width="16px" height="14px" viewBox="0 0 16 14" version="1.1" xmlns="http://www.w3.org/2000/svg" xmlns:xlink="http://www.w3.org/1999/xlink">
    <!-- Generator: Sketch 50.2 (55047) - http://www.bohemiancoding.com/sketch -->
    <title>Love Copy</title>
    <desc>Created with Sketch.</desc>
    <defs></defs>
    <g id="Page-1" stroke="none" stroke-width="1" fill="none" fill-rule="evenodd">
        <g id="Childrens-Desktop-01" transform="translate(-884.000000, -2652.000000)" stroke="#252525" stroke-width="2">
            <g id="Group-Copy" transform="translate(332.000000, 2461.000000)">
                <path d="M560.006625,203.973315 C560.202303,203.924235 560.470244,203.849528 560.790973,203.747512 C561.55284,203.505181 562.313864,203.198384 563.016809,202.825312 C563.947849,202.331184 564.698697,201.760382 565.208513,201.124362 C566.432173,199.597799 566.99679,197.895601 566.999907,196.359771 C566.999921,196.35263 566.999921,196.35263 566.999937,196.345401 C567.001789,195.460446 566.89215,194.705136 566.502297,193.903238 C566.278331,193.442554 565.978248,193.036855 565.567965,192.673432 C565.122998,192.255775 564.38184,192.001192 563.823547,192.000011 C562.39568,191.99709 561.499042,192.565806 560.875685,193.698836 L559.998987,195.292344 L559.123125,193.698376 C558.500803,192.565822 557.60432,191.99709 556.176523,192.000011 C555.618143,192.001192 554.87696,192.255779 554.410121,192.693399 C554.021752,193.036855 553.721669,193.442554 553.497703,193.903238 C553.10785,194.705136 552.998211,195.460446 553.000063,196.345401 C553.000079,196.35263 553.000079,196.35263 553.000093,196.359771 C553.003142,197.895563 553.567752,199.597784 554.791428,201.124365 C555.301907,201.761214 556.055702,202.332848 556.991255,202.827546 C557.695321,203.199839 558.457561,203.50601 559.220649,203.747861 C559.542061,203.849728 559.810561,203.92432 560.006625,203.973315 Z" id="Love-Copy"></path>
            </g>
        </g>
    </g>
</svg>