<?xml version="1.0" encoding="UTF-8"?>
<svg width="16px" height="14px" viewBox="0 0 16 14" version="1.1" xmlns="http://www.w3.org/2000/svg" xmlns:xlink="http://www.w3.org/1999/xlink">
    <!-- Generator: Sketch 50.2 (55047) - http://www.bohemiancoding.com/sketch -->
    <title>Love Copy</title>
    <desc>Created with Sketch.</desc>
    <defs></defs>
    <g id="Page-1" stroke="none" stroke-width="1" fill="none" fill-rule="evenodd">
        <g id="Childrens-Desktop-01" transform="translate(-884.000000, -2407.000000)" fill="#FC002E">
            <g id="Group" transform="translate(332.000000, 2240.000000)">
                <path d="M552.000095,172.361755 C551.99897,171.794834 551.983158,169.504745 553.747657,167.944305 C554.484032,167.253066 555.53922,167.001357 556.174407,167.000013 C558.145719,166.99598 559.295281,167.935151 559.999531,169.216804 C560.704656,167.935151 561.854281,166.99598 563.825593,167.000013 C564.46078,167.001357 565.515905,167.253066 566.252343,167.944305 C568.016842,169.504745 568.00103,171.794834 567.999905,172.361755 C567.99703,173.778545 567.54953,175.802714 565.98878,177.749808 C564.073781,180.138864 560.007031,181 560.007031,181 C560.007031,181 555.926157,180.138864 554.011157,177.749808 C552.450408,175.802714 552.002908,173.778545 552.000095,172.361755 Z" id="Love-Copy"></path>
            </g>
        </g>
    </g>
</svg>