<?xml version="1.0" encoding="UTF-8"?>
<svg width="34px" height="33px" viewBox="0 0 34 33" version="1.1" xmlns="http://www.w3.org/2000/svg" xmlns:xlink="http://www.w3.org/1999/xlink">
    <!-- Generator: Sketch 50 (54983) - http://www.bohemiancoding.com/sketch -->
    <title>Image Chooser</title>
    <desc>Created with Sketch.</desc>
    <defs></defs>
    <g id="Anatomy-&amp;-Layout" stroke="none" stroke-width="1" fill="none" fill-rule="evenodd">
        <g id="Mobile-Replies-Open" transform="translate(-307.000000, -1824.000000)" fill="#252525">
            <g id="Group-3" transform="translate(20.000000, 1812.000000)">
                <path d="M308.65245,30 L308.65245,29.0619446 C308.588389,29.0619446 308.524329,28.997316 308.524329,28.997316 L302.887004,23.3746297 C300.901129,25.5073728 296.352833,30.225259 293.854474,32.6811449 L297,32.6811449 C297,33.2906145 297,33.9153574 297,34.5553737 L288.921815,34.5553737 C287.832787,34.5553737 287,33.7152022 287,32.6165164 L287,13.9388573 C287,12.8401715 287.832787,12 288.921815,12 L308.588389,12 C309.677418,12 310.510204,12.9048001 310.510204,13.9388573 L310.510204,30 L308.65245,30 Z M288.921815,13.9388573 L288.921815,32.7457735 L290.971751,32.7457735 C291.035812,32.6811449 291.099872,32.6165164 291.163933,32.5518878 C291.868598,32.0348592 297.313741,26.4121729 302.118278,21.3711438 C302.31046,21.1772581 302.566702,21.0480009 302.822944,21.0480009 C303.143246,21.0480009 303.335428,21.1126295 303.527609,21.3065152 L308.588389,26.3475443 L308.588389,13.9388573 L288.921815,13.9388573 Z M297.505922,19.8846865 C297.505922,21.5650295 296.160652,22.9868583 294.431018,22.9868583 C292.765445,22.9868583 291.356114,21.5650295 291.356114,19.8846865 C291.356114,18.2043435 292.701385,16.7825148 294.431018,16.7825148 C296.096591,16.7825148 297.505922,18.2043435 297.505922,19.8846865 Z M295.584107,19.8200579 C295.584107,19.1737722 295.071623,18.6567435 294.431018,18.6567435 C293.790413,18.6567435 293.277929,19.1737722 293.277929,19.8200579 C293.277929,20.4663437 293.790413,20.9833723 294.431018,20.9833723 C295.071623,20.9833723 295.584107,20.4663437 295.584107,19.8200579 Z M300.755102,29.9018003 L317,29.9018003 C319.209139,29.9018003 321,31.6926613 321,33.9018003 L321,40.5160938 C321,42.7252328 319.209139,44.5160938 317,44.5160938 L300.755102,44.5160938 C298.545963,44.5160938 296.755102,42.7252328 296.755102,40.5160938 L296.755102,33.9018003 C296.755102,31.6926613 298.545963,29.9018003 300.755102,29.9018003 Z M300.755102,31.9018003 C299.650533,31.9018003 298.755102,32.7972308 298.755102,33.9018003 L298.755102,40.5160938 C298.755102,41.6206633 299.650533,42.5160938 300.755102,42.5160938 L317,42.5160938 C318.104569,42.5160938 319,41.6206633 319,40.5160938 L319,33.9018003 C319,32.7972308 318.104569,31.9018003 317,31.9018003 L300.755102,31.9018003 Z M307.661551,40.1358385 C307.454312,40.2472892 307.219648,40.3432591 306.957551,40.4237512 C306.695454,40.5042434 306.421172,40.5646115 306.134694,40.6048576 C305.848216,40.6451037 305.561743,40.6652264 305.275265,40.6652264 C304.744977,40.6652264 304.268029,40.5862834 303.844408,40.428395 C303.420787,40.2705066 303.061172,40.041417 302.765551,39.7411195 C302.46993,39.4408219 302.244409,39.0770649 302.08898,38.6498374 C301.93355,38.22261 301.855837,37.7396645 301.855837,37.2009864 C301.855837,36.6746917 301.938122,36.1994857 302.102694,35.7753541 C302.267266,35.3512225 302.50193,34.9874654 302.806694,34.684072 C303.111457,34.3806786 303.478692,34.1484933 303.908408,33.987509 C304.338125,33.8265247 304.81812,33.7460338 305.348408,33.7460338 C305.744601,33.7460338 306.124025,33.7847314 306.486694,33.8621277 C306.849362,33.9395239 307.183073,34.0525208 307.487837,34.2011217 L307.487837,35.5199476 C307.207454,35.34658 306.901172,35.2150083 306.56898,35.1252286 C306.236787,35.0354489 305.878696,34.9905597 305.494694,34.9905597 C305.031453,34.9905597 304.638315,35.0772423 304.315265,35.2506099 C303.992216,35.4239776 303.745361,35.6747378 303.574694,36.002898 C303.404026,36.3310582 303.318694,36.730417 303.318694,37.2009864 C303.318694,37.9192238 303.495454,38.4718249 303.84898,38.8588063 C304.202505,39.2457877 304.708405,39.4392755 305.366694,39.4392755 C305.531266,39.4392755 305.695836,39.4268923 305.860408,39.4021255 C306.02498,39.3773587 306.186503,39.340209 306.34498,39.2906754 L306.34498,37.9532744 L305.174694,37.9532744 L305.174694,36.8294861 L307.661551,36.8294861 L307.661551,40.1358385 Z M308.90498,33.8853464 L310.31298,33.8853464 L310.31298,40.5259138 L308.90498,40.5259138 L308.90498,33.8853464 Z M311.702694,33.8853464 L316.063837,33.8853464 L316.063837,35.0741473 L313.110694,35.0741473 L313.110694,36.7087485 L315.716408,36.7087485 L315.716408,37.8975494 L313.110694,37.8975494 L313.110694,40.5259138 L311.702694,40.5259138 L311.702694,33.8853464 Z" id="Image-Chooser"></path>
            </g>
        </g>
    </g>
</svg>