<?xml version="1.0" encoding="UTF-8"?>
<svg width="15px" height="16px" viewBox="0 0 15 16" version="1.1" xmlns="http://www.w3.org/2000/svg" xmlns:xlink="http://www.w3.org/1999/xlink">
    <!-- Generator: Sketch 50.2 (55047) - http://www.bohemiancoding.com/sketch -->
    <title>Share</title>
    <desc>Created with Sketch.</desc>
    <defs></defs>
    <g id="Over-16-Anatomy-&amp;-Layout" stroke="none" stroke-width="1" fill="none" fill-rule="evenodd">
        <g id="Mobile-Comments" transform="translate(-331.000000, -563.000000)" fill="#252525">
            <g id="Group-Copy-11" transform="translate(12.000000, 402.000000)">
                <path d="M321.805132,172.077 C322.618021,172.077 323.348391,171.735 323.861443,171.196 L328.474817,173.6175 C328.422026,173.824 328.391786,174.042 328.391786,174.266 C328.391786,175.777 329.649047,177 331.196405,177 C332.742739,177 334,175.777 334,174.266 C334,172.7545 332.742739,171.5315 331.196405,171.5315 C330.383004,171.5315 329.649047,171.871 329.139069,172.41 L324.291977,169.823 L324.254049,168.427 L329.24619,165.699 C329.75258,166.1755 330.438359,166.4705 331.196405,166.4705 C332.742739,166.4705 334,165.245 334,163.734 C334,162.2225 332.742739,161 331.196405,161 C329.649047,161 328.391786,162.2225 328.391786,163.734 C328.391786,164.0105 328.433301,164.2785 328.516333,164.532 L323.751247,167.375 C323.244858,166.901 322.559079,166.6065 321.805132,166.6065 C320.254698,166.6065 319,167.8285 319,169.3395 C319,170.8545 320.254698,172.077 321.805132,172.077" id="Share"></path>
            </g>
        </g>
    </g>
</svg>