<?xml version="1.0" encoding="UTF-8"?>
<svg width="15px" height="18px" viewBox="0 0 15 18" version="1.1" xmlns="http://www.w3.org/2000/svg" xmlns:xlink="http://www.w3.org/1999/xlink">
    <!-- Generator: Sketch 50 (54983) - http://www.bohemiancoding.com/sketch -->
    <title>Thumbs Up</title>
    <desc>Created with Sketch.</desc>
    <defs></defs>
    <g id="Anatomy-&amp;-Layout" stroke="none" stroke-width="1" fill="none" fill-rule="evenodd">
        <g id="Mobile-01" transform="translate(-240.000000, -500.000000)" fill="#000000">
            <g id="Group" transform="translate(12.000000, 356.000000)">
                <g id="Thumbs-Up-Copy" transform="translate(228.000000, 143.000000)">
                    <path d="M6.4040012,1 L5.29493466,3.9345625 L1.8298754,9.43975 L0,9.4335625 L0,17.53525 L1.99361886,17.5375 L3.9377208,19 L12.4073655,19 L13.5648236,17.822125 L13.5648236,16.0643125 L13.339184,15.835375 L13.9120047,15.2520625 L13.9120047,13.49425 L13.6908666,13.2686875 L14.268189,12.682 L14.268189,10.923625 L14.0493016,10.7014375 L14.6300001,10.111375 L14.6300001,8.3490625 L13.4714166,7.17175 L9.1927043,7.17175 L9.08072853,6.9630625 L9.77340277,4.3541875 L9.485867,1 L6.4040012,1 Z M2.49216425,15.995125 L2.65534502,10.9855 L6.60994659,4.7018125 L7.44216852,2.5429375 L8.09826776,2.5429375 L8.2417543,4.216375 L7.46073737,7.1588125 L8.29577276,8.714125 L12.7213478,8.72425 L13.1163578,9.1275625 L13.1163578,9.758125 L12.7213478,10.160875 L11.4232166,10.160875 L12.7719901,11.5406875 L12.7719901,12.1915 L12.3764174,12.5948125 L11.0839132,12.5948125 L12.4371882,13.9695625 L12.4371882,14.620375 L12.0416155,15.0236875 L10.7541755,15.0236875 L12.1080132,16.397875 L12.1080132,17.0543125 L11.7124405,17.4570625 L4.4351408,17.4570625 L2.49216425,15.995125 Z" id="Thumbs-Up"></path>
                </g>
            </g>
        </g>
    </g>
</svg>